<mxfile host="Electron" modified="2024-01-30T17:32:12.091Z" agent="Mozilla/5.0 (Windows NT 10.0; Win64; x64) AppleWebKit/537.36 (KHTML, like Gecko) draw.io/23.0.2 Chrome/120.0.6099.109 Electron/28.1.0 Safari/537.36" etag="ynzvAbQB39p84rN1j9Sy" version="23.0.2" type="device">
  <diagram id="C5RBs43oDa-KdzZeNtuy" name="Page-1">
    <mxGraphModel dx="1884" dy="1102" grid="1" gridSize="10" guides="1" tooltips="1" connect="1" arrows="1" fold="1" page="1" pageScale="1" pageWidth="827" pageHeight="1169" math="0" shadow="0">
      <root>
        <mxCell id="WIyWlLk6GJQsqaUBKTNV-0" />
        <mxCell id="WIyWlLk6GJQsqaUBKTNV-1" parent="WIyWlLk6GJQsqaUBKTNV-0" />
        <mxCell id="zh3utnzeT94NHXO4I2v2-3" value="" style="edgeStyle=orthogonalEdgeStyle;rounded=0;orthogonalLoop=1;jettySize=auto;html=1;" edge="1" parent="WIyWlLk6GJQsqaUBKTNV-1" source="zh3utnzeT94NHXO4I2v2-1" target="zh3utnzeT94NHXO4I2v2-2">
          <mxGeometry relative="1" as="geometry" />
        </mxCell>
        <mxCell id="zh3utnzeT94NHXO4I2v2-1" value="#include &amp;lt;iostream&amp;gt;&lt;br&gt;#include &amp;lt;stdlib.h&amp;gt;" style="shape=process;whiteSpace=wrap;html=1;backgroundOutline=1;" vertex="1" parent="WIyWlLk6GJQsqaUBKTNV-1">
          <mxGeometry x="331" y="110" width="166" height="60" as="geometry" />
        </mxCell>
        <mxCell id="zh3utnzeT94NHXO4I2v2-5" value="" style="edgeStyle=orthogonalEdgeStyle;rounded=0;orthogonalLoop=1;jettySize=auto;html=1;" edge="1" parent="WIyWlLk6GJQsqaUBKTNV-1" source="zh3utnzeT94NHXO4I2v2-2" target="zh3utnzeT94NHXO4I2v2-4">
          <mxGeometry relative="1" as="geometry" />
        </mxCell>
        <mxCell id="zh3utnzeT94NHXO4I2v2-2" value="int main()&lt;br&gt;{" style="ellipse;whiteSpace=wrap;html=1;" vertex="1" parent="WIyWlLk6GJQsqaUBKTNV-1">
          <mxGeometry x="354" y="210" width="120" height="80" as="geometry" />
        </mxCell>
        <mxCell id="zh3utnzeT94NHXO4I2v2-14" value="" style="edgeStyle=orthogonalEdgeStyle;rounded=0;orthogonalLoop=1;jettySize=auto;html=1;" edge="1" parent="WIyWlLk6GJQsqaUBKTNV-1" source="zh3utnzeT94NHXO4I2v2-4" target="zh3utnzeT94NHXO4I2v2-13">
          <mxGeometry relative="1" as="geometry" />
        </mxCell>
        <mxCell id="zh3utnzeT94NHXO4I2v2-4" value="cin &amp;gt;&amp;gt; n;" style="shape=parallelogram;perimeter=parallelogramPerimeter;whiteSpace=wrap;html=1;fixedSize=1;" vertex="1" parent="WIyWlLk6GJQsqaUBKTNV-1">
          <mxGeometry x="354" y="400" width="120" height="30" as="geometry" />
        </mxCell>
        <mxCell id="zh3utnzeT94NHXO4I2v2-9" value="int a[100]&lt;br&gt;const int n;&lt;br&gt;int num;&lt;br&gt;int cnt = 0;&lt;br&gt;srand(time(NULL))" style="shape=process;whiteSpace=wrap;html=1;backgroundOutline=1;" vertex="1" parent="WIyWlLk6GJQsqaUBKTNV-1">
          <mxGeometry x="540" y="280" width="120" height="100" as="geometry" />
        </mxCell>
        <mxCell id="zh3utnzeT94NHXO4I2v2-12" value="" style="endArrow=none;html=1;rounded=0;entryX=0;entryY=0.5;entryDx=0;entryDy=0;" edge="1" parent="WIyWlLk6GJQsqaUBKTNV-1" target="zh3utnzeT94NHXO4I2v2-9">
          <mxGeometry width="50" height="50" relative="1" as="geometry">
            <mxPoint x="410" y="330" as="sourcePoint" />
            <mxPoint x="430" y="560" as="targetPoint" />
          </mxGeometry>
        </mxCell>
        <mxCell id="zh3utnzeT94NHXO4I2v2-16" value="" style="edgeStyle=orthogonalEdgeStyle;rounded=0;orthogonalLoop=1;jettySize=auto;html=1;" edge="1" parent="WIyWlLk6GJQsqaUBKTNV-1" source="zh3utnzeT94NHXO4I2v2-13" target="zh3utnzeT94NHXO4I2v2-15">
          <mxGeometry relative="1" as="geometry" />
        </mxCell>
        <mxCell id="zh3utnzeT94NHXO4I2v2-19" style="edgeStyle=orthogonalEdgeStyle;rounded=0;orthogonalLoop=1;jettySize=auto;html=1;exitX=1;exitY=0.5;exitDx=0;exitDy=0;entryX=0.5;entryY=0;entryDx=0;entryDy=0;" edge="1" parent="WIyWlLk6GJQsqaUBKTNV-1" source="zh3utnzeT94NHXO4I2v2-13" target="zh3utnzeT94NHXO4I2v2-18">
          <mxGeometry relative="1" as="geometry" />
        </mxCell>
        <mxCell id="zh3utnzeT94NHXO4I2v2-13" value="for (int ii = 0; i &amp;lt; n; i++)&lt;br&gt;{" style="shape=hexagon;perimeter=hexagonPerimeter2;whiteSpace=wrap;html=1;fixedSize=1;" vertex="1" parent="WIyWlLk6GJQsqaUBKTNV-1">
          <mxGeometry x="308" y="490" width="211" height="40" as="geometry" />
        </mxCell>
        <mxCell id="zh3utnzeT94NHXO4I2v2-17" style="edgeStyle=orthogonalEdgeStyle;rounded=0;orthogonalLoop=1;jettySize=auto;html=1;exitX=0.5;exitY=1;exitDx=0;exitDy=0;entryX=0;entryY=0.5;entryDx=0;entryDy=0;" edge="1" parent="WIyWlLk6GJQsqaUBKTNV-1" source="zh3utnzeT94NHXO4I2v2-15" target="zh3utnzeT94NHXO4I2v2-13">
          <mxGeometry relative="1" as="geometry" />
        </mxCell>
        <mxCell id="zh3utnzeT94NHXO4I2v2-15" value="a[i] = rand()%200-100;" style="rounded=0;whiteSpace=wrap;html=1;" vertex="1" parent="WIyWlLk6GJQsqaUBKTNV-1">
          <mxGeometry x="354" y="560" width="120" height="30" as="geometry" />
        </mxCell>
        <mxCell id="zh3utnzeT94NHXO4I2v2-22" value="" style="edgeStyle=orthogonalEdgeStyle;rounded=0;orthogonalLoop=1;jettySize=auto;html=1;" edge="1" parent="WIyWlLk6GJQsqaUBKTNV-1" source="zh3utnzeT94NHXO4I2v2-18" target="zh3utnzeT94NHXO4I2v2-21">
          <mxGeometry relative="1" as="geometry" />
        </mxCell>
        <mxCell id="zh3utnzeT94NHXO4I2v2-18" value="int max = a[0];" style="rounded=0;whiteSpace=wrap;html=1;" vertex="1" parent="WIyWlLk6GJQsqaUBKTNV-1">
          <mxGeometry x="540" y="545" width="120" height="25" as="geometry" />
        </mxCell>
        <mxCell id="zh3utnzeT94NHXO4I2v2-20" style="edgeStyle=orthogonalEdgeStyle;rounded=0;orthogonalLoop=1;jettySize=auto;html=1;exitX=0.5;exitY=1;exitDx=0;exitDy=0;" edge="1" parent="WIyWlLk6GJQsqaUBKTNV-1" source="zh3utnzeT94NHXO4I2v2-4" target="zh3utnzeT94NHXO4I2v2-4">
          <mxGeometry relative="1" as="geometry" />
        </mxCell>
        <mxCell id="zh3utnzeT94NHXO4I2v2-24" value="" style="edgeStyle=orthogonalEdgeStyle;rounded=0;orthogonalLoop=1;jettySize=auto;html=1;" edge="1" parent="WIyWlLk6GJQsqaUBKTNV-1" source="zh3utnzeT94NHXO4I2v2-21" target="zh3utnzeT94NHXO4I2v2-23">
          <mxGeometry relative="1" as="geometry" />
        </mxCell>
        <mxCell id="zh3utnzeT94NHXO4I2v2-44" style="edgeStyle=orthogonalEdgeStyle;rounded=0;orthogonalLoop=1;jettySize=auto;html=1;exitX=1;exitY=0.5;exitDx=0;exitDy=0;entryX=0.5;entryY=0;entryDx=0;entryDy=0;" edge="1" parent="WIyWlLk6GJQsqaUBKTNV-1" source="zh3utnzeT94NHXO4I2v2-21" target="zh3utnzeT94NHXO4I2v2-43">
          <mxGeometry relative="1" as="geometry" />
        </mxCell>
        <mxCell id="zh3utnzeT94NHXO4I2v2-21" value="for (int i =0; i &amp;lt; n; i++)" style="shape=hexagon;perimeter=hexagonPerimeter2;whiteSpace=wrap;html=1;fixedSize=1;" vertex="1" parent="WIyWlLk6GJQsqaUBKTNV-1">
          <mxGeometry x="500" y="610" width="200" height="40" as="geometry" />
        </mxCell>
        <mxCell id="zh3utnzeT94NHXO4I2v2-28" style="edgeStyle=orthogonalEdgeStyle;rounded=0;orthogonalLoop=1;jettySize=auto;html=1;exitX=0;exitY=0.5;exitDx=0;exitDy=0;entryX=0.5;entryY=0;entryDx=0;entryDy=0;" edge="1" parent="WIyWlLk6GJQsqaUBKTNV-1" source="zh3utnzeT94NHXO4I2v2-23" target="zh3utnzeT94NHXO4I2v2-25">
          <mxGeometry relative="1" as="geometry" />
        </mxCell>
        <mxCell id="zh3utnzeT94NHXO4I2v2-30" style="edgeStyle=orthogonalEdgeStyle;rounded=0;orthogonalLoop=1;jettySize=auto;html=1;exitX=1;exitY=0.5;exitDx=0;exitDy=0;entryX=0.5;entryY=0;entryDx=0;entryDy=0;" edge="1" parent="WIyWlLk6GJQsqaUBKTNV-1" source="zh3utnzeT94NHXO4I2v2-23" target="zh3utnzeT94NHXO4I2v2-29">
          <mxGeometry relative="1" as="geometry" />
        </mxCell>
        <mxCell id="zh3utnzeT94NHXO4I2v2-23" value="if (a[i]&amp;lt;max)" style="rhombus;whiteSpace=wrap;html=1;" vertex="1" parent="WIyWlLk6GJQsqaUBKTNV-1">
          <mxGeometry x="560" y="670" width="80" height="80" as="geometry" />
        </mxCell>
        <mxCell id="zh3utnzeT94NHXO4I2v2-27" value="" style="edgeStyle=orthogonalEdgeStyle;rounded=0;orthogonalLoop=1;jettySize=auto;html=1;" edge="1" parent="WIyWlLk6GJQsqaUBKTNV-1" source="zh3utnzeT94NHXO4I2v2-25" target="zh3utnzeT94NHXO4I2v2-26">
          <mxGeometry relative="1" as="geometry" />
        </mxCell>
        <mxCell id="zh3utnzeT94NHXO4I2v2-25" value="max = a[i];" style="rounded=0;whiteSpace=wrap;html=1;" vertex="1" parent="WIyWlLk6GJQsqaUBKTNV-1">
          <mxGeometry x="474" y="750" width="100" height="30" as="geometry" />
        </mxCell>
        <mxCell id="zh3utnzeT94NHXO4I2v2-41" style="edgeStyle=orthogonalEdgeStyle;rounded=0;orthogonalLoop=1;jettySize=auto;html=1;exitX=0.5;exitY=1;exitDx=0;exitDy=0;entryX=0;entryY=0.5;entryDx=0;entryDy=0;" edge="1" parent="WIyWlLk6GJQsqaUBKTNV-1" source="zh3utnzeT94NHXO4I2v2-26" target="zh3utnzeT94NHXO4I2v2-39">
          <mxGeometry relative="1" as="geometry" />
        </mxCell>
        <mxCell id="zh3utnzeT94NHXO4I2v2-26" value="num = i++;" style="rounded=0;whiteSpace=wrap;html=1;" vertex="1" parent="WIyWlLk6GJQsqaUBKTNV-1">
          <mxGeometry x="474" y="810" width="100" height="30" as="geometry" />
        </mxCell>
        <mxCell id="zh3utnzeT94NHXO4I2v2-33" style="edgeStyle=orthogonalEdgeStyle;rounded=0;orthogonalLoop=1;jettySize=auto;html=1;exitX=0;exitY=0.5;exitDx=0;exitDy=0;entryX=0.5;entryY=0;entryDx=0;entryDy=0;" edge="1" parent="WIyWlLk6GJQsqaUBKTNV-1" source="zh3utnzeT94NHXO4I2v2-29" target="zh3utnzeT94NHXO4I2v2-32">
          <mxGeometry relative="1" as="geometry" />
        </mxCell>
        <mxCell id="zh3utnzeT94NHXO4I2v2-37" style="edgeStyle=orthogonalEdgeStyle;rounded=0;orthogonalLoop=1;jettySize=auto;html=1;exitX=1;exitY=0.5;exitDx=0;exitDy=0;entryX=1;entryY=0.5;entryDx=0;entryDy=0;" edge="1" parent="WIyWlLk6GJQsqaUBKTNV-1" source="zh3utnzeT94NHXO4I2v2-29" target="zh3utnzeT94NHXO4I2v2-35">
          <mxGeometry relative="1" as="geometry" />
        </mxCell>
        <mxCell id="zh3utnzeT94NHXO4I2v2-29" value="if(a[i]==max)" style="rhombus;whiteSpace=wrap;html=1;" vertex="1" parent="WIyWlLk6GJQsqaUBKTNV-1">
          <mxGeometry x="640" y="730" width="80" height="80" as="geometry" />
        </mxCell>
        <mxCell id="zh3utnzeT94NHXO4I2v2-38" style="edgeStyle=orthogonalEdgeStyle;rounded=0;orthogonalLoop=1;jettySize=auto;html=1;exitX=0.5;exitY=1;exitDx=0;exitDy=0;entryX=0;entryY=0.5;entryDx=0;entryDy=0;" edge="1" parent="WIyWlLk6GJQsqaUBKTNV-1" source="zh3utnzeT94NHXO4I2v2-32" target="zh3utnzeT94NHXO4I2v2-35">
          <mxGeometry relative="1" as="geometry" />
        </mxCell>
        <mxCell id="zh3utnzeT94NHXO4I2v2-32" value="cnt ++;" style="rounded=0;whiteSpace=wrap;html=1;" vertex="1" parent="WIyWlLk6GJQsqaUBKTNV-1">
          <mxGeometry x="570" y="850" width="100" height="30" as="geometry" />
        </mxCell>
        <mxCell id="zh3utnzeT94NHXO4I2v2-40" style="edgeStyle=orthogonalEdgeStyle;rounded=0;orthogonalLoop=1;jettySize=auto;html=1;exitX=0.5;exitY=1;exitDx=0;exitDy=0;entryX=1;entryY=0.5;entryDx=0;entryDy=0;" edge="1" parent="WIyWlLk6GJQsqaUBKTNV-1" source="zh3utnzeT94NHXO4I2v2-35" target="zh3utnzeT94NHXO4I2v2-39">
          <mxGeometry relative="1" as="geometry" />
        </mxCell>
        <mxCell id="zh3utnzeT94NHXO4I2v2-35" value="" style="ellipse;whiteSpace=wrap;html=1;aspect=fixed;" vertex="1" parent="WIyWlLk6GJQsqaUBKTNV-1">
          <mxGeometry x="680" y="910" width="10" height="10" as="geometry" />
        </mxCell>
        <mxCell id="zh3utnzeT94NHXO4I2v2-42" style="edgeStyle=orthogonalEdgeStyle;rounded=0;orthogonalLoop=1;jettySize=auto;html=1;exitX=0.5;exitY=1;exitDx=0;exitDy=0;entryX=0;entryY=0.5;entryDx=0;entryDy=0;" edge="1" parent="WIyWlLk6GJQsqaUBKTNV-1" source="zh3utnzeT94NHXO4I2v2-39" target="zh3utnzeT94NHXO4I2v2-21">
          <mxGeometry relative="1" as="geometry">
            <Array as="points">
              <mxPoint x="605" y="980" />
              <mxPoint x="440" y="980" />
              <mxPoint x="440" y="630" />
            </Array>
          </mxGeometry>
        </mxCell>
        <mxCell id="zh3utnzeT94NHXO4I2v2-39" value="" style="ellipse;whiteSpace=wrap;html=1;" vertex="1" parent="WIyWlLk6GJQsqaUBKTNV-1">
          <mxGeometry x="600" y="950" width="10" height="10" as="geometry" />
        </mxCell>
        <mxCell id="zh3utnzeT94NHXO4I2v2-47" value="" style="edgeStyle=orthogonalEdgeStyle;rounded=0;orthogonalLoop=1;jettySize=auto;html=1;" edge="1" parent="WIyWlLk6GJQsqaUBKTNV-1" source="zh3utnzeT94NHXO4I2v2-43" target="zh3utnzeT94NHXO4I2v2-46">
          <mxGeometry relative="1" as="geometry" />
        </mxCell>
        <mxCell id="zh3utnzeT94NHXO4I2v2-43" value="cout &amp;lt;&amp;lt; max &amp;lt;&amp;lt; endl;" style="shape=parallelogram;perimeter=parallelogramPerimeter;whiteSpace=wrap;html=1;fixedSize=1;" vertex="1" parent="WIyWlLk6GJQsqaUBKTNV-1">
          <mxGeometry x="840" y="690" width="190" height="40" as="geometry" />
        </mxCell>
        <mxCell id="zh3utnzeT94NHXO4I2v2-45" value="cout &amp;lt;&amp;lt; cnt &amp;lt;&amp;lt; endl;" style="shape=parallelogram;perimeter=parallelogramPerimeter;whiteSpace=wrap;html=1;fixedSize=1;" vertex="1" parent="WIyWlLk6GJQsqaUBKTNV-1">
          <mxGeometry x="830" y="750" width="190" height="40" as="geometry" />
        </mxCell>
        <mxCell id="zh3utnzeT94NHXO4I2v2-50" value="" style="edgeStyle=orthogonalEdgeStyle;rounded=0;orthogonalLoop=1;jettySize=auto;html=1;" edge="1" parent="WIyWlLk6GJQsqaUBKTNV-1" source="zh3utnzeT94NHXO4I2v2-46" target="zh3utnzeT94NHXO4I2v2-49">
          <mxGeometry relative="1" as="geometry" />
        </mxCell>
        <mxCell id="zh3utnzeT94NHXO4I2v2-46" value="cout &amp;lt;&amp;lt; num &amp;lt;&amp;lt; endl;" style="shape=parallelogram;perimeter=parallelogramPerimeter;whiteSpace=wrap;html=1;fixedSize=1;" vertex="1" parent="WIyWlLk6GJQsqaUBKTNV-1">
          <mxGeometry x="820" y="820" width="190" height="40" as="geometry" />
        </mxCell>
        <mxCell id="zh3utnzeT94NHXO4I2v2-52" value="" style="edgeStyle=orthogonalEdgeStyle;rounded=0;orthogonalLoop=1;jettySize=auto;html=1;" edge="1" parent="WIyWlLk6GJQsqaUBKTNV-1" source="zh3utnzeT94NHXO4I2v2-49" target="zh3utnzeT94NHXO4I2v2-51">
          <mxGeometry relative="1" as="geometry" />
        </mxCell>
        <mxCell id="zh3utnzeT94NHXO4I2v2-55" style="edgeStyle=orthogonalEdgeStyle;rounded=0;orthogonalLoop=1;jettySize=auto;html=1;exitX=1;exitY=0.5;exitDx=0;exitDy=0;entryX=0.5;entryY=0;entryDx=0;entryDy=0;" edge="1" parent="WIyWlLk6GJQsqaUBKTNV-1" source="zh3utnzeT94NHXO4I2v2-49" target="zh3utnzeT94NHXO4I2v2-54">
          <mxGeometry relative="1" as="geometry" />
        </mxCell>
        <mxCell id="zh3utnzeT94NHXO4I2v2-49" value="for (int i =0; i &amp;lt; n; i++)" style="shape=hexagon;perimeter=hexagonPerimeter2;whiteSpace=wrap;html=1;fixedSize=1;" vertex="1" parent="WIyWlLk6GJQsqaUBKTNV-1">
          <mxGeometry x="815" y="895" width="200" height="40" as="geometry" />
        </mxCell>
        <mxCell id="zh3utnzeT94NHXO4I2v2-53" style="edgeStyle=orthogonalEdgeStyle;rounded=0;orthogonalLoop=1;jettySize=auto;html=1;exitX=0.5;exitY=1;exitDx=0;exitDy=0;entryX=0;entryY=0.5;entryDx=0;entryDy=0;" edge="1" parent="WIyWlLk6GJQsqaUBKTNV-1" source="zh3utnzeT94NHXO4I2v2-51" target="zh3utnzeT94NHXO4I2v2-49">
          <mxGeometry relative="1" as="geometry" />
        </mxCell>
        <mxCell id="zh3utnzeT94NHXO4I2v2-51" value="cout &amp;lt;&amp;lt; a[i] &amp;lt;&amp;lt; &quot; &#39;;" style="shape=parallelogram;perimeter=parallelogramPerimeter;whiteSpace=wrap;html=1;fixedSize=1;" vertex="1" parent="WIyWlLk6GJQsqaUBKTNV-1">
          <mxGeometry x="855" y="960" width="120" height="30" as="geometry" />
        </mxCell>
        <mxCell id="zh3utnzeT94NHXO4I2v2-54" value="return 0;" style="ellipse;whiteSpace=wrap;html=1;" vertex="1" parent="WIyWlLk6GJQsqaUBKTNV-1">
          <mxGeometry x="1020" y="950" width="120" height="80" as="geometry" />
        </mxCell>
      </root>
    </mxGraphModel>
  </diagram>
</mxfile>
